# xmcd
#
# Track frame offsets:
#	150
#	16375
#	36967
#	54025
#	69107
#	89392
#	105207
#	121765
#	136032
#	152237
#	167425
#	182777
#
# Disc length: 2676 seconds
#
# Revision: 14
# Processed by: cddbd v1.5.2PL0 Copyright (c) Steve Scherf et al.
# Submitted via: audiograbber 1.83.01
#
DISCID=830a720c
DTITLE=Various Artist - Coyote Ugly
DYEAR=2000
DGENRE=Pop
TTITLE0=LeAnn Rimes - Can't Fight The Moonlight
TTITLE1=LeAnn Rimes - Please Remember
TTITLE2=LeAnn Rimes - The Right Kind Of Wrong
TTITLE3=LeAnn Rimes - But I Do Love You
TTITLE4=Don Henley - All She Wants To Do Is Dance
TTITLE5=EMF - Unbelievable
TTITLE6=Snap - The Power
TTITLE7=INXS - Need You Tonight
TTITLE8=The Charlie Daniels Band - The Devil Went Down To Georgia
TTITLE9=Rare Blend - Boom Boom Boom
TTITLE10=Tamara Walker - Didn't We Love
TTITLE11=Mary Griffin - We Can Get There (TP2K Hot Radio Mix)
EXTD=YEAR: 2000
EXTT0=
EXTT1=
EXTT2=
EXTT3=
EXTT4=
EXTT5=
EXTT6=
EXTT7=
EXTT8=
EXTT9=
EXTT10=
EXTT11=
PLAYORDER=
